<svg width="152" height="23" viewBox="0 0 152 23" fill="none" xmlns="http://www.w3.org/2000/svg">
<path d="M21.1284 11.3691C22.1621 11.3691 23.0155 12.2125 22.848 13.2325C22.5834 14.8442 21.9772 16.3883 21.0619 17.7582C19.7983 19.6494 18.0022 21.1233 15.9009 21.9937C13.7995 22.8642 11.4872 23.0919 9.25647 22.6482C7.02569 22.2044 4.97658 21.1092 3.36828 19.5009C1.75997 17.8926 0.664704 15.8435 0.220974 13.6127C-0.222756 11.3819 0.00498277 9.06963 0.875391 6.96828C1.7458 4.86693 3.21978 3.07087 5.11095 1.80723C6.4808 0.891926 8.02498 0.285742 9.63662 0.0210974C10.6566 -0.146395 11.5 0.707079 11.5 1.74074C11.5 2.77439 10.6502 3.59004 9.64649 3.83704C8.77571 4.05133 7.94404 4.41613 7.19056 4.91959C5.91496 5.77192 4.92075 6.98337 4.33366 8.40074C3.74656 9.81811 3.59295 11.3777 3.89225 12.8824C4.19155 14.3871 4.93031 15.7692 6.01512 16.854C7.09993 17.9388 8.48206 18.6776 9.98673 18.9769C11.4914 19.2762 13.051 19.1226 14.4684 18.5355C15.8858 17.9484 17.0972 16.9542 17.9495 15.6786C18.453 14.9251 18.8178 14.0934 19.0321 13.2227C19.2791 12.2189 20.0947 11.3691 21.1284 11.3691Z" fill="#FAF8F1"/>
<path d="M15 11.3691C15 13.3021 13.433 14.8691 11.5 14.8691C9.56701 14.8691 8 13.3021 8 11.3691C8 9.43614 9.56701 7.86914 11.5 7.86914C13.433 7.86914 15 9.43614 15 11.3691Z" fill="#FAF8F1"/>
<path d="M11.5 7.86914C13.433 7.86914 15 9.43614 15 11.3691V8.36913C15 8.09299 14.7761 7.86914 14.5 7.86914H11.5Z" fill="#FAF8F1"/>
<path d="M137.225 0.93457H140.485V8.54995H140.543C140.772 8.18457 141.048 7.85765 141.372 7.56919C141.696 7.28072 142.049 7.04034 142.43 6.84803C142.831 6.63649 143.241 6.48265 143.66 6.38649C144.099 6.27111 144.528 6.21342 144.947 6.21342C146.111 6.21342 147.121 6.42495 147.979 6.84803C148.856 7.25188 149.581 7.81918 150.153 8.54995C150.725 9.26149 151.154 10.098 151.44 11.0596C151.726 12.0211 151.869 13.05 151.869 14.1461C151.869 15.1461 151.736 16.1173 151.469 17.0596C151.221 18.0019 150.83 18.8384 150.296 19.5692C149.781 20.2807 149.123 20.8576 148.322 21.3C147.522 21.723 146.578 21.9346 145.491 21.9346C144.995 21.9346 144.49 21.8961 143.975 21.8192C143.479 21.7615 143.002 21.6365 142.545 21.4442C142.087 21.2519 141.668 21.0019 141.286 20.6942C140.924 20.3865 140.619 19.9826 140.371 19.4826H140.314V21.5307H137.225V0.93457ZM148.608 14.0884C148.608 13.4153 148.523 12.7615 148.351 12.1269C148.179 11.4923 147.922 10.9346 147.579 10.4538C147.236 9.9538 146.807 9.55957 146.292 9.27111C145.777 8.96342 145.186 8.80957 144.518 8.80957C143.145 8.80957 142.106 9.29034 141.401 10.2519C140.714 11.2134 140.371 12.4923 140.371 14.0884C140.371 14.8384 140.457 15.5403 140.629 16.1942C140.819 16.8288 141.096 17.3769 141.458 17.8384C141.82 18.3 142.249 18.6653 142.745 18.9346C143.26 19.2038 143.851 19.3384 144.518 19.3384C145.262 19.3384 145.891 19.1846 146.406 18.8769C146.921 18.5692 147.34 18.175 147.665 17.6942C148.008 17.1942 148.246 16.6365 148.38 16.0211C148.532 15.3865 148.608 14.7423 148.608 14.0884Z" fill="#FAF8F1"/>
<path d="M133.631 18.2134C133.631 18.6173 133.678 18.9057 133.774 19.0788C133.888 19.2519 134.098 19.3384 134.403 19.3384C134.498 19.3384 134.613 19.3384 134.746 19.3384C134.88 19.3384 135.032 19.3192 135.204 19.2807V21.5596C135.089 21.598 134.937 21.6365 134.746 21.675C134.574 21.7326 134.393 21.7807 134.203 21.8192C134.012 21.8576 133.821 21.8865 133.631 21.9057C133.44 21.925 133.278 21.9346 133.144 21.9346C132.477 21.9346 131.924 21.8 131.485 21.5307C131.047 21.2615 130.761 20.7903 130.627 20.1173C129.979 20.7519 129.178 21.2134 128.225 21.5019C127.29 21.7903 126.385 21.9346 125.508 21.9346C124.84 21.9346 124.201 21.8384 123.591 21.6461C122.981 21.473 122.438 21.2134 121.961 20.8673C121.503 20.5019 121.131 20.05 120.845 19.5115C120.578 18.9538 120.445 18.3096 120.445 17.5788C120.445 16.6557 120.607 15.9057 120.931 15.3288C121.274 14.7519 121.713 14.3 122.247 13.973C122.8 13.6461 123.41 13.4153 124.077 13.2807C124.764 13.1269 125.45 13.0115 126.137 12.9346C126.728 12.8192 127.29 12.7423 127.824 12.7038C128.358 12.6461 128.825 12.5596 129.226 12.4442C129.645 12.3288 129.97 12.1557 130.198 11.925C130.446 11.675 130.57 11.3096 130.57 10.8288C130.57 10.4057 130.465 10.0596 130.256 9.79034C130.065 9.52111 129.817 9.31918 129.512 9.18457C129.226 9.03072 128.902 8.93457 128.539 8.89611C128.177 8.83841 127.834 8.80957 127.51 8.80957C126.594 8.80957 125.841 9.00188 125.25 9.38649C124.659 9.77111 124.325 10.3673 124.249 11.175H120.988C121.046 10.2134 121.274 9.41534 121.675 8.78072C122.075 8.14611 122.581 7.63649 123.191 7.25188C123.82 6.86726 124.526 6.59803 125.307 6.44418C126.089 6.29034 126.89 6.21341 127.71 6.21341C128.435 6.21341 129.15 6.29034 129.855 6.44418C130.561 6.59803 131.19 6.84803 131.743 7.19418C132.315 7.54034 132.773 7.99226 133.116 8.54995C133.459 9.08841 133.631 9.75187 133.631 10.5403V18.2134ZM130.37 14.0596C129.874 14.3865 129.264 14.5884 128.539 14.6653C127.815 14.723 127.09 14.8192 126.366 14.9538C126.022 15.0115 125.689 15.098 125.365 15.2134C125.04 15.3096 124.754 15.4538 124.507 15.6461C124.259 15.8192 124.058 16.0596 123.906 16.3673C123.772 16.6557 123.706 17.0115 123.706 17.4346C123.706 17.8 123.811 18.1076 124.02 18.3576C124.23 18.6076 124.478 18.8096 124.764 18.9634C125.069 19.098 125.393 19.1942 125.736 19.2519C126.099 19.3096 126.423 19.3384 126.709 19.3384C127.071 19.3384 127.462 19.2903 127.882 19.1942C128.301 19.098 128.692 18.9346 129.054 18.7038C129.436 18.473 129.75 18.1846 129.998 17.8384C130.246 17.473 130.37 17.0307 130.37 16.5115V14.0596Z" fill="#FAF8F1"/>
<path d="M105.28 0.93457H108.855V18.4153H119.237V21.5307H105.28V0.93457Z" fill="#FAF8F1"/>
<path d="M88.3981 6.61726H91.4871V8.80957L91.5443 8.86726C92.0401 8.04034 92.6884 7.39611 93.4893 6.93457C94.2901 6.4538 95.1768 6.21341 96.1493 6.21341C97.7701 6.21341 99.0476 6.63649 99.982 7.48265C100.916 8.3288 101.383 9.59803 101.383 11.2903V21.5307H98.1228V12.1557C98.0847 10.9826 97.8368 10.1365 97.3792 9.61726C96.9215 9.0788 96.2065 8.80957 95.234 8.80957C94.681 8.80957 94.1853 8.91534 93.7467 9.12688C93.3081 9.31918 92.9363 9.59803 92.6312 9.96341C92.3261 10.3096 92.0878 10.723 91.9162 11.2038C91.7445 11.6846 91.6587 12.1942 91.6587 12.7326V21.5307H88.3981V6.61726Z" fill="#FAF8F1"/>
<path d="M81.5847 0.93457H84.8454V4.04996H81.5847V0.93457ZM81.5847 6.61726H84.8454V21.5307H81.5847V6.61726Z" fill="#FAF8F1"/>
<path d="M77.9905 18.2134C77.9905 18.6173 78.0382 18.9057 78.1335 19.0788C78.2479 19.2519 78.4577 19.3384 78.7627 19.3384C78.8581 19.3384 78.9725 19.3384 79.106 19.3384C79.2395 19.3384 79.392 19.3192 79.5636 19.2807V21.5596C79.4492 21.598 79.2967 21.6365 79.106 21.675C78.9344 21.7326 78.7532 21.7807 78.5625 21.8192C78.3719 21.8576 78.1812 21.8865 77.9905 21.9057C77.7998 21.925 77.6377 21.9346 77.5043 21.9346C76.8369 21.9346 76.2839 21.8 75.8453 21.5307C75.4068 21.2615 75.1207 20.7903 74.9873 20.1173C74.339 20.7519 73.5381 21.2134 72.5847 21.5019C71.6504 21.7903 70.7446 21.9346 69.8675 21.9346C69.2001 21.9346 68.5613 21.8384 67.9511 21.6461C67.341 21.473 66.7975 21.2134 66.3208 20.8673C65.8632 20.5019 65.4914 20.05 65.2053 19.5115C64.9384 18.9538 64.8049 18.3096 64.8049 17.5788C64.8049 16.6557 64.967 15.9057 65.2911 15.3288C65.6344 14.7519 66.0729 14.3 66.6068 13.973C67.1598 13.6461 67.77 13.4153 68.4374 13.2807C69.1238 13.1269 69.8103 13.0115 70.4967 12.9346C71.0878 12.8192 71.6503 12.7423 72.1843 12.7038C72.7182 12.6461 73.1853 12.5596 73.5858 12.4442C74.0053 12.3288 74.3294 12.1557 74.5582 11.925C74.8061 11.675 74.9301 11.3096 74.9301 10.8288C74.9301 10.4057 74.8252 10.0596 74.6154 9.79034C74.4248 9.52111 74.1769 9.31918 73.8718 9.18457C73.5858 9.03072 73.2616 8.93457 72.8993 8.89611C72.537 8.83841 72.1938 8.80957 71.8696 8.80957C70.9544 8.80957 70.2012 9.00188 69.6101 9.38649C69.019 9.77111 68.6853 10.3673 68.609 11.175H65.3483C65.4056 10.2134 65.6344 9.41534 66.0348 8.78072C66.4352 8.14611 66.9405 7.63649 67.5507 7.25188C68.18 6.86726 68.8855 6.59803 69.6673 6.44418C70.4491 6.29034 71.2499 6.21341 72.0698 6.21341C72.7944 6.21341 73.5095 6.29034 74.215 6.44418C74.9205 6.59803 75.5498 6.84803 76.1028 7.19418C76.6748 7.54034 77.1324 7.99226 77.4757 8.54995C77.8189 9.08841 77.9905 9.75187 77.9905 10.5403V18.2134ZM74.7298 14.0596C74.2341 14.3865 73.6239 14.5884 72.8993 14.6653C72.1747 14.723 71.4501 14.8192 70.7255 14.9538C70.3823 15.0115 70.0486 15.098 69.7245 15.2134C69.4003 15.3096 69.1143 15.4538 68.8664 15.6461C68.6185 15.8192 68.4183 16.0596 68.2658 16.3673C68.1323 16.6557 68.0655 17.0115 68.0655 17.4346C68.0655 17.8 68.1704 18.1076 68.3802 18.3576C68.5899 18.6076 68.8378 18.8096 69.1238 18.9634C69.4289 19.098 69.7531 19.1942 70.0963 19.2519C70.4586 19.3096 70.7828 19.3384 71.0688 19.3384C71.4311 19.3384 71.822 19.2903 72.2415 19.1942C72.661 19.098 73.0519 18.9346 73.4141 18.7038C73.7955 18.473 74.1101 18.1846 74.358 17.8384C74.6059 17.473 74.7298 17.0307 74.7298 16.5115V14.0596Z" fill="#FAF8F1"/>
<path d="M55.5503 6.61726H58.6107V9.50187H58.668C58.7633 9.09803 58.9444 8.7038 59.2114 8.31918C59.4974 7.93457 59.8311 7.58841 60.2125 7.28072C60.6129 6.9538 61.0515 6.69418 61.5282 6.50188C62.0049 6.30957 62.4911 6.21341 62.9869 6.21341C63.3682 6.21341 63.6257 6.22303 63.7591 6.24226C63.9117 6.26149 64.0642 6.28072 64.2168 6.29995V9.47303C63.988 9.43457 63.7496 9.40572 63.5017 9.38649C63.2729 9.34803 63.0441 9.3288 62.8153 9.3288C62.2623 9.3288 61.7379 9.44418 61.2421 9.67495C60.7654 9.88649 60.3459 10.2134 59.9837 10.6557C59.6214 11.0788 59.3353 11.6076 59.1256 12.2423C58.9158 12.8769 58.811 13.6076 58.811 14.4346V21.5307H55.5503V6.61726Z" fill="#FAF8F1"/>
<path d="M39.4444 9.55957H45.2792C46.1373 9.55957 46.8524 9.31918 47.4244 8.83842C47.9965 8.33842 48.2825 7.62688 48.2825 6.7038C48.2825 5.66534 48.0251 4.93457 47.5102 4.51149C46.9954 4.08842 46.2517 3.87688 45.2792 3.87688H39.4444V9.55957ZM35.8691 0.93457H45.7941C47.6246 0.93457 49.0929 1.35765 50.1988 2.2038C51.3048 3.04995 51.8577 4.3288 51.8577 6.04034C51.8577 7.0788 51.6003 7.97303 51.0855 8.72303C50.5897 9.4538 49.8747 10.0211 48.9403 10.425V10.4826C50.1988 10.7519 51.1522 11.3576 51.8005 12.3C52.4489 13.223 52.773 14.3865 52.773 15.7903C52.773 16.598 52.63 17.3576 52.344 18.0692C52.058 18.7615 51.6099 19.3673 50.9997 19.8865C50.3895 20.3865 49.6077 20.7903 48.6543 21.098C47.7009 21.3865 46.5663 21.5307 45.2506 21.5307H35.8691V0.93457ZM39.4444 18.5884H45.7655C46.8524 18.5884 47.6914 18.3096 48.2825 17.7519C48.8927 17.175 49.1977 16.3673 49.1977 15.3288C49.1977 14.3096 48.8927 13.5307 48.2825 12.9923C47.6914 12.4346 46.8524 12.1557 45.7655 12.1557H39.4444V18.5884Z" fill="#FAF8F1"/>
</svg>
