<svg width="24" height="24" viewBox="0 0 24 24" fill="none" xmlns="http://www.w3.org/2000/svg">
<g clip-path="url(#clip0_6_226)">
<path fill-rule="evenodd" clip-rule="evenodd" d="M5 12C5 11.7348 5.10536 11.4804 5.29289 11.2929C5.48043 11.1054 5.73478 11 6 11H18C18.2652 11 18.5196 11.1054 18.7071 11.2929C18.8946 11.4804 19 11.7348 19 12C19 12.2652 18.8946 12.5196 18.7071 12.7071C18.5196 12.8946 18.2652 13 18 13H6C5.73478 13 5.48043 12.8946 5.29289 12.7071C5.10536 12.5196 5 12.2652 5 12Z" fill="#0F172A"/>
<path fill-rule="evenodd" clip-rule="evenodd" d="M11.293 5.29303C11.4806 5.10556 11.7349 5.00024 12 5.00024C12.2652 5.00024 12.5195 5.10556 12.707 5.29303L18.707 11.293C18.8945 11.4806 18.9998 11.7349 18.9998 12C18.9998 12.2652 18.8945 12.5195 18.707 12.707L12.707 18.707C12.5184 18.8892 12.2658 18.99 12.0036 18.9877C11.7414 18.9854 11.4906 18.8803 11.3052 18.6948C11.1198 18.5094 11.0146 18.2586 11.0124 17.9964C11.0101 17.7342 11.1109 17.4816 11.293 17.293L16.586 12L11.293 6.70703C11.1056 6.5195 11.0002 6.26519 11.0002 6.00003C11.0002 5.73487 11.1056 5.48056 11.293 5.29303Z" fill="#0F172A"/>
</g>
<defs>
<clipPath id="clip0_6_226">
<rect width="24" height="24" fill="white"/>
</clipPath>
</defs>
</svg>
